<mxfile host="app.diagrams.net" modified="2023-06-20T12:49:10.547Z" agent="Mozilla/5.0 (Macintosh; Intel Mac OS X 10_15_7) AppleWebKit/605.1.15 (KHTML, like Gecko) Version/16.5 Safari/605.1.15" version="21.3.8" etag="wRwnMDtjPQbW4V-8NXTp" type="github">
  <diagram name="Page-1" id="4H0blD3tz2d-Jxiz_098">
    <mxGraphModel>
      <root>
        <mxCell id="0" />
        <mxCell id="1" parent="0" />
      </root>
    </mxGraphModel>
  </diagram>
</mxfile>
